<?xml version="1.0" encoding="UTF-8"?>
<!DOCTYPE svg PUBLIC "-//W3C//DTD SVG 1.1//EN" "http://www.w3.org/Graphics/SVG/1.1/DTD/svg11.dtd">
<!-- Creator: CorelDRAW 2020 (64 Bit) -->
<svg xmlns="http://www.w3.org/2000/svg" xml:space="preserve" width="400mm" height="400mm" version="1.1" style="shape-rendering:geometricPrecision; text-rendering:geometricPrecision; image-rendering:optimizeQuality; fill-rule:evenodd; clip-rule:evenodd"
viewBox="0 0 40000 40000"
 xmlns:xlink="http://www.w3.org/1999/xlink"
 xmlns:xodm="http://www.corel.com/coreldraw/odm/2003">
 <defs>
  <style type="text/css">
   <![CDATA[
    .fil0 {fill:none}
    .fil1 {fill:black}
   ]]>
  </style>
 </defs>
 <g id="Camada_x0020_1">
  <metadata id="CorelCorpID_0Corel-Layer"/>
  <rect class="fil0" x="1361.14" y="1384.68" width="37238.55" height="37238.55"/>
  <g id="_1740241638832">
   <path class="fil1" d="M15535.1 15773.69c-55.16,-116.05 6.57,-91.87 15.16,-102.6 78.65,-3.63 107.94,89.94 94.88,167.57 -63.29,-10.12 -83.56,-9.28 -110.04,-64.97zm6388.27 -1596.73c-5.55,60.22 -22.44,119.59 -35.43,176.85 -6.11,27.02 -12.24,67.68 -20.86,90.25 -41.91,110.07 -1.76,19.43 -40.25,63.95 4.32,72.78 -12.71,107.51 -27.99,185.19 -4.24,21.55 -11.89,73.18 -17.92,90.1 -38.49,107.84 -9.74,30.03 -40.9,67.73 -1.45,67.64 -46.36,362.94 -94.75,418.58 8.13,143.52 -204.48,1055.74 -260.76,1311.53 -27.3,124.07 -47.93,317.28 -180.51,337.32 -86.47,-138.59 371.03,-1776.27 427.98,-2049.15l90.64 -379.8 89.3 -318.02 85.33 -257.29 447.66 -1294.15c-4.63,149.17 -286.3,1039.36 -353.93,1360.3l-56.95 179.1c-1.66,-3.53 -6.7,11.94 -10.66,17.51zm-4206.24 -2809.7c16.41,84.61 55.32,133.76 85.96,227.34l70.19 223.24 86.32 283.31 90.79 296.81 92.71 305.7 225.44 743.4c88.21,243.82 163.46,581.88 234.26,840.62 59.4,217.17 225.52,653.91 187.59,869.01 -97.03,1.17 -96.85,-17.08 -133.71,-88.6 -76.02,-147.45 -334.94,-1132.73 -329.68,-1217.18 -40.64,-47.24 -54.18,-123.97 -70.24,-186.67 -40.66,-158.78 -135.67,-437.62 -131.76,-560.25 -49.87,-55.83 -117.27,-357.52 -129.16,-426.55 -35.78,-94.96 -79.39,-234.5 -73.07,-341.57l-20.32 -27.24c-21.55,-39.39 -49.69,-115.15 -45.42,-229.05 -54.47,-49.31 -72.7,-186.44 -68.45,-266.67 -68.15,-65.59 -87.24,-251.52 -100.51,-357.64 -51.86,-73.49 -63.46,-179.61 -57.99,-281.42l87.05 193.41zm3388.1 -408.4c4.55,159.93 -21.83,314.29 -66.28,371.34 5.35,82.77 -6.69,134.24 -16.79,216.06 -2.99,24.23 -7.51,78.35 -12.01,97.36 -21.55,91.33 -4.01,44.4 -41.59,83.38 15.26,154.18 -65.51,476.04 -89.1,650.74l-204.97 1954.19c-30.67,457.81 -77.91,913.17 -102.6,1367.45 -11.81,217.21 -31.11,1198.93 -134.32,1298.72 -61.5,-25.74 -66.28,-51.42 -73.92,-147.05l-0.02 -610.45c6.39,-250.67 29.29,-516.76 53.9,-766.12 49.13,-497.79 95.5,-997.27 146.49,-1494.8l269.12 -2190.34c32.98,-229.04 96.57,-467.8 120.9,-691.87l67.87 -355.51 67.09 -316.03 237.46 -939.93c-5.01,171.64 -139.13,1392.98 -221.23,1472.86zm-2400.96 2729.61c-7,19.1 -59.19,120.04 -46.62,21.35 -95.06,-681.54 -907.03,-2896.99 -1268.22,-3595.98 -42.49,-82.21 -67.33,-173.97 -130.26,-209.47 -80.39,21.16 -102.91,65.84 -124.76,168.52 -196.48,922.88 225.16,2574.69 470.54,3477.74 41.71,153.59 255.19,236.53 227.82,377.93l-170.36 -27.65c79.49,158.19 297.04,423.3 214.89,613.73 -237.33,45.57 -275.29,-55.6 -443.09,413.46 -106.31,297.16 -378.14,-5.62 -550.06,-70.78 -547.45,-207.42 -368.61,91.2 -548.78,233.83 -128.6,101.78 -246.74,-13.47 -356.34,48.38 -96,54.17 -110.01,216.78 -155.61,318.95 -71.19,22.64 -190.3,19.01 -314.03,159.9 -156.56,178.26 137.2,300.31 -64.01,339.42 -166.65,32.38 -81.05,47.16 -177.33,68.14 -138.72,30.21 -388.62,-19.3 -558.83,167.11 -76.94,84.25 -58.05,149.61 -95.52,265.4 -44.47,137.46 -96.26,112.97 -223.68,138.76 -451.83,91.51 -323.95,357.31 -473.22,605.2 -218.93,-46.4 -255.5,42.38 -370.73,105.2 -40.08,21.86 -82.79,29.17 -124.58,50.15 -88.72,446.54 20.22,316.08 -301,424.41 -66.25,22.34 -121.41,54.49 -172.38,79.33l-51.09 701.38c-108.07,68.53 -240.12,46.52 -458.55,250.62l-186.44 154.61c-114.18,128.34 54.24,129.44 104.18,169.01 2.38,136.82 -54.29,111.42 -66.89,198.63 -8.08,55.95 46.21,142.57 49.64,240.78 -157.32,98.97 -672.72,268.53 -709.56,634.81 -16.64,165.43 29.53,94.24 -34.35,192.55 -138.15,212.69 -117.91,288.75 -44.6,557.27 69.27,253.6 -165.71,172.68 -345.35,541.52 -78.8,161.84 -41.53,227.92 -38.9,395.16l25.71 20.22 8705.7 -2828.97c32.67,-439.89 -198.81,-2892.69 -249.98,-3322.56 -48,-403.47 -374.84,-3030.74 -351.48,-3201.18 -39.01,-55.05 -38.34,-161.87 -46.88,-232.75l-83.02 -735.52c-25.41,-135.93 -64.92,-467.37 -48.08,-590.4 -18.25,-24.33 -10.55,1.38 -24.05,-43.19l-39.21 -683.92c47.49,66.25 62.62,183.8 75.99,285.53l94.11 549.81 109.02 737.62 224.55 1751.98c78.39,567.21 174.04,1206.11 209.44,1776.65 75.68,1219.12 246.6,2464.73 305.34,3679.2l8610.38 2838.42 50.33 -1.12c-50.4,-167.39 -250.36,-166.5 -154.05,-421.8 40.13,-106.35 211.59,-205.99 -26.76,-435.01 -249.47,-239.7 -119.52,-142.01 -114.03,-428.34 1.54,-80.72 -48.87,-164.71 -88.69,-225.03 -199.14,-301.61 -218.8,199.45 -218.16,-609.13 0.15,-191.78 1.64,-130.59 -192.62,-309.97 -64.9,-59.94 -223.37,-173.63 -238.07,-254.81 -34.51,-190.5 60.22,-309.23 -59.84,-463.26 -91.02,4.84 -25.28,59.99 -109.45,44.91 -38.41,-55.67 -32.46,-36.68 -35.12,-123.43 -0.46,-0.38 -32,-26.78 -38.31,-31.72 -4.42,-3.45 -25.1,-10.94 -27.91,-20.57 -2.2,-7.54 -9.72,-6.65 -14.65,-9.87 -381.59,-148.35 71.42,-545.56 -349.13,-815.89 -160.01,-102.82 -190.01,-45.52 -223.29,-40.43 -102.01,15.56 -33.9,14.95 -65.26,-10.41 -100.45,-108.73 8.21,-319.52 -142.11,-398.63 -107.18,55.26 -16.03,78.21 -135.27,109.24l-36.78 -142.93c-102.42,29.49 -181.96,25.58 -276.95,-12.71 -2.19,-869.89 -243.97,-540.55 -377.34,-703.8 -123.38,-150.98 -41.74,-209.88 -346.01,-218.36 -256.94,-7.16 -309.23,189.2 -441.1,83.27 -127.8,-102.67 36.71,-218.74 -175.55,-660.94 -181.27,-377.67 -450.57,-181.45 -564.52,-187.38 -49.38,-100.35 -67.12,-322.77 -374.03,-322.57 -313.47,0.21 -259.51,193.39 -491.83,212.13 64.57,-273.37 -46.19,-532.81 -236.79,-584.36 -92.27,-24.95 -188.15,-30.78 -283.57,-27.25l-217.18 -11.27c-8.69,-43.61 -13.34,-29.14 -9.18,-80.01 6.14,-74.43 18.12,-56.66 25.26,-68.81 -20.04,-309.97 457.14,-1875 551.49,-2305.05 101.16,-461.03 476.52,-2147.17 204.68,-2487.23 -194.36,-29.21 -302.27,176.57 -372.92,289.93 -399.26,640.75 -901.23,2150.29 -1136.11,2921.6 -27.25,89.41 -48.9,172.92 -81.02,256.78 -38.91,101.55 -53.07,166.93 -138.64,191.34 -185.37,-179.74 43.09,-1340.28 91.25,-1659.32 85.75,-568.03 177.72,-1126.93 262.48,-1699.38 85.93,-580.47 579.12,-3055.81 209.03,-3416.65 -227.36,7.34 -469.03,608.23 -553.82,796.82 -532.45,1184.16 -710.63,1842.31 -932.87,3191.74 -130.39,791.79 -232.12,1597.7 -319.51,2410.88 -44.83,417.19 -76.6,832.63 -122.07,1253.89 -20.91,193.9 -41.05,418.57 -52.68,616.2 -13.17,223.73 20.57,433.07 -135.88,557.76 -190.3,-7.9 -229.94,-186.47 -242.29,-377.86 -37.06,-575.16 -118.57,-1196.63 -156.07,-1788.1 -61.8,-975.13 -452.37,-3512.42 -636.66,-4525.89 -48.48,-266.72 -358.53,-1957.21 -657.74,-1937.63 -558.8,36.55 97.33,5449.95 200.49,6226.27 21.04,158.29 9.56,302.81 27.35,443.85z"/>
   <path class="fil1" d="M10907.53 22189.58l0 28.02 685.91 266.49 13.06 3042.19c-19.5,103.01 -364.72,84.99 -440.43,529.97 -51.71,303.99 138.03,568.77 324.16,636.4 -37.5,294.99 -157.4,696.93 -226.87,997.21 -78.83,340.67 -154.41,660.86 -233.04,1005.16 -89.46,391.79 -133.12,677.99 1.84,1076.65 263.38,778.11 1108.27,683.18 1380.92,36.53 155.1,-367.79 115.18,-658.66 28.86,-1041 -65.02,-288.09 -441.43,-1895.96 -438,-2047.97 198.02,-94.98 379.32,-293.25 363.65,-607.21 -15.88,-317.99 -199.22,-419.52 -421.34,-546.12l-10.76 -2948.51c637.3,231.27 1265.41,487.1 1896.88,724.43l1416.22 544.87c240.27,95.21 281.6,38.31 549.37,-2.53 2600.41,-396.72 5862.52,-554.05 8501.19,-9.08 255.73,52.81 287.17,103.83 516.91,9.97 163.07,-66.61 323.39,-126.14 487.15,-189.66 640.75,-248.52 1263.06,-493.44 1898.19,-739.35 324.72,-125.73 618.89,-244.54 937.73,-369.15 162.59,-63.51 315.03,-120.49 471.33,-182.88 151.37,-60.4 353.78,-125.12 477.01,-190.86l0 -21.49c-171.61,-34.82 -403.14,-129.65 -574.14,-186.44l-1706.38 -570.05c-920.71,-307.8 -6703.15,-2268.07 -6803.27,-2248.54l-9096.15 3002.95z"/>
   <path class="fil1" d="M16169.23 24710.45l533.01 -1.41 7.28 1820.69 -540.45 -1.25 0.16 -1818.03zm7437.75 -24.49l534.69 -1.41 4.12 1817.34 -536.36 1.54 -2.45 -1817.47zm-2549.98 1841.72l-310.25 0.23 -0.05 -1816.31 536.3 -2.71c166.86,291.05 293.13,682.48 464.64,978.75l3.45 -978.62 314.09 0.58 6.11 1817.83 -549.5 1.76 -452.47 -1045.93 -12.32 1044.42zm1718.45 -1117.65c172.02,29.19 416.96,-27.99 568.15,27.61l-11.88 276.56c-68.63,39.21 -447.9,18.71 -529.64,18.35l2.3 501.45 668.02 1.89 2.35 294.2 -1203.63 -0.92 0.46 -1820.64 1195.71 0.59 8.54 243.54 -700.28 0.33 -0.1 457.04zm-3402.11 1118.01c-42.99,-48.46 -26.86,-130.94 -26.5,-225.06 1.35,-377.78 -18.56,-1371.36 6.13,-1602.66l1204.76 6.65c8.74,73.92 21.73,180.81 -12.58,247.07l-684.14 -1.74 -1.97 481.71 558.36 0.28 11.74 286.71 -560.08 2.12 -6.16 511.69 691.97 2.18 0.28 284.87 -1181.81 6.18zm-857.52 1.51l-591.03 -0.77c-43.38,-121 -199.91,-385.29 -263.89,-495.51 -76.07,56.28 -242.46,378.7 -305.65,489.66l-449.17 6.72c75.81,-185.16 542.77,-806.48 530.38,-893.41 -2.84,-19.91 -225.27,-419.09 -250.7,-465.86 -67.22,-123.66 -210.9,-342.28 -246.2,-460.29l557.99 -1.02c65.43,81.92 163.22,309.12 228.33,395.06l22.26 26.71c3.22,3.73 9.71,10.04 12.45,13.06 2.73,3.04 8.38,8.84 12.85,12.98 25.33,-60.5 230.02,-387.98 286.61,-444.44l352.89 -2.99 -382.1 663.06c-123.31,206.22 -67.38,136.16 227.43,687.14 86.32,161.36 176.8,303.17 257.55,469.9zm-2835.21 -2405.74l0.21 3589.03 9053.03 9.99 1.08 -3612.85c-2460.06,-492.83 -4408.85,-624.69 -6918.6,-373.08 -373.69,37.48 -1904.96,251.93 -2135.72,386.91z"/>
  </g>
  <g id="_1740241637968">
   <path class="fil1" d="M32327.39 8788.24c-9.55,519.32 -132.44,918.22 -228.54,1383.85l-1340.84 54.7c29.14,-245.01 135.19,-1201.33 210.47,-1370.95l1358.91 -67.6zm261.92 -308.39c-144.84,-41.45 -794.07,2.01 -998.67,13.35 -1166.93,64.62 -885.61,13.64 -1028.63,1108.05 -21.08,161.26 -157.98,858.7 -46.18,926.88l1512.54 -33.38c202.08,1.13 304.38,6.1 355.23,-170.62 91.9,-319.6 342.82,-1592.84 205.71,-1844.28z"/>
   <path class="fil1" d="M10177.22 6604.06l4.49 -71.95c74.04,-4.73 19.44,-15.89 64.43,18.7 196.09,24.33 496.87,92.84 682.93,154.32 194.05,64.12 411.96,167.48 605.66,215.53 -19.55,451.88 -98.23,881.3 -103.09,1356.59l-1318.07 -361.58c-11.42,-437.53 79.75,-911.87 63.65,-1311.61zm-385.04 1062.8c0,413.41 -40.11,501.89 286.75,563.79 180.83,34.22 349.23,74.65 531.22,120.22 221.18,55.36 888.86,254.93 1084.68,225.19 50.45,-125.21 39.18,-510.59 53.14,-681.32 18.68,-228.64 47,-454.41 71.8,-675.33 28.58,-254.5 113.31,-483.94 -118.43,-565.87 -281.86,-99.69 -1654.18,-568.3 -1793.11,-395.04 -52.62,65.62 -116.05,1229.22 -116.05,1408.36z"/>
   <path class="fil1" d="M29815.07 33454.45c-119.88,5.57 -592.79,-109 -714.81,-147.26 -212.04,-66.52 -426.65,-172.28 -635.87,-228.22l111.93 -1343.14c305.85,26.73 1014.72,290.97 1307.67,345.33l-68.92 1373.29zm391.93 -1236.53c0,-509.16 -41.09,-367.52 -785.31,-557.35 -220.52,-56.23 -930.84,-271.07 -1117.39,-232.55 -21.96,50.75 -111.46,1212.97 -132.65,1403.35 -32.93,296.04 -109.83,441.7 172.91,533.26 201.39,65.21 379.93,127.59 580.34,187.22 204,60.72 392.29,116.37 605.29,162.28 697.31,150.36 572.58,143.76 640.29,-775.62 17.36,-235.98 36.52,-480.01 36.52,-720.59z"/>
   <path class="fil1" d="M19091.16 4432.19c66.23,-149.25 723.4,-934.4 858.9,-1070.48 164.76,120.96 535.87,600.71 664.98,800.54 56.47,87.42 140.99,200.67 191.05,293.21 -35.18,78.13 -44.68,70.09 -111.17,139.43l-536.22 627.8c-63.91,74.28 -133.73,196.09 -208.64,255.35l-858.9 -1045.85zm762.82 -1448.66c-54.91,28.68 -250.78,272.82 -307.17,346.89 -95.31,125.2 -209.12,253.66 -306.51,368.73 -108.53,128.24 -177.38,226.11 -285.78,365.83 -375.72,484.34 -242.15,395.73 413.36,1158.48 104.49,121.57 204.39,248.17 304.77,371 52.96,64.78 102.59,119.01 150.43,175.35 177.43,208.88 229.97,81.72 363.33,-100.93 50.05,-68.61 90.69,-116.29 145.13,-180.02l619.81 -707.09c346.17,-323.85 201.25,-386.29 -102.99,-805.63 -95.34,-131.41 -191.55,-252.87 -295.93,-378.79 -106.13,-128.06 -190.15,-237.83 -311.82,-362.88 -67.87,-69.79 -232.92,-331.31 -386.63,-250.94z"/>
   <path class="fil1" d="M11514.28 31804.99l86.13 1343.24c-160.19,94.73 -1096.6,326.89 -1335.37,371.45 -31.46,-538.72 -82.86,-408.1 -63.17,-1092.32 6.2,-215.77 -27.98,-288.15 65.54,-327.23 61.51,-25.73 1232.65,-296.48 1246.87,-295.14zm111.89 -359.44c-288.97,65.09 -589.84,163.31 -895.11,233.44 -152.97,35.12 -304.61,68.27 -458.21,101.15 -167.69,35.91 -328.05,34.51 -366.13,190.27 -51.98,212.6 21.51,1280.28 66.53,1592.34 67.18,465.76 135.31,348.07 1137.47,77.73 1049.44,-283.08 805.2,-169.51 715.65,-1328.67 -13.2,-170.94 -28.37,-343.27 -40.61,-512.54 -9.93,-137.4 8.89,-391.67 -159.59,-353.72z"/>
   <path class="fil1" d="M33965.06 27028.36c98.19,328.65 348.28,805.25 477.16,1297.51 -503.39,101.03 -842.65,174.26 -1384.83,186.26 -81.06,-214.47 -138.69,-432.4 -211.23,-649.73 -70.95,-212.6 -173.12,-427.02 -234.45,-626.14l1353.35 -207.9zm-29.05 -311.08l-1481.8 273.5c-289.6,53.3 -212.31,130.17 -125.26,341.66 115.44,280.5 204.74,571.07 298.33,865.42 178.59,561.76 130.99,661.71 517.27,622.66 343.27,-34.67 695.51,-74.28 1029.26,-132.3 148.35,-25.81 338.28,-60.46 477.11,-107.06 223.52,-75.04 161.41,-186.69 99.9,-366.22 -132.1,-385.79 -309.89,-898.09 -478.74,-1266.51 -77.87,-169.93 -99.59,-282.53 -336.07,-231.15z"/>
   <path class="fil1" d="M12945.45 33870.29c392.37,-151.57 828.9,-380.98 1181.06,-576.11 47.08,47.97 187.85,542.12 215.03,645.88 57.31,218.64 124.2,465.68 170.33,683.58 -188.38,65.76 -917.59,514.85 -1217.35,611.61 -124.81,-166.82 -325.38,-1088.16 -349.07,-1364.96zm-320.87 23.17c92.8,505.45 217.22,991.18 390.32,1466.31 59.11,162.23 98.16,334.67 319.63,226.48 276.98,-135.31 556.55,-268.12 824.36,-410.37 225.03,-119.54 699.63,-323.46 685.38,-532.34l-433.73 -1423.19c-49.21,-163.5 -67.79,-379.77 -268.54,-273.64l-819.45 415.94c-423.99,199.04 -751.54,238.91 -697.97,530.81z"/>
   <path class="fil1" d="M5642.26 28426.19c-15.88,-5.59 -123.91,-59.84 -30,-59.84 61.91,-210.13 138.35,-483.81 221.65,-676.55 51.49,-119.13 223.87,-510.83 293.09,-587.22 424.94,54.36 855.84,169.8 1306.14,222.63 -116.03,405.23 -424.92,1121.96 -465.58,1302.37l-1325.3 -201.39zm331.93 -1631.97c-130.91,61.09 -132.12,143.87 -226.64,367.02 -164.89,389.27 -373.12,875.24 -463.41,1285.24 -68,308.73 111.83,260.15 757.57,367.81 1396.36,232.79 1069.08,245.38 1403.78,-677.41 482.99,-1331.65 503.78,-995.19 -513.31,-1192.01 -193.13,-37.39 -817.66,-216.14 -957.99,-150.65z"/>
   <path class="fil1" d="M25485.54 5380.41c173.99,-75.15 395.88,-211.1 589.43,-314.59 208.12,-111.27 416.29,-203.34 623.72,-301.39 143.02,187.03 327.2,1076.41 353.64,1369.63 -229.78,57.86 -947.8,446.15 -1191.41,569.38 -52.77,-71.56 -347.65,-1158.35 -375.38,-1323.03zm1214.55 -977.35c-244.96,106.92 -1529.51,689.15 -1548.56,918.56 -4.28,51.38 240.7,805.71 280.49,935.37 48.32,157.38 94.68,310.45 138.35,466.66 157.01,561.57 75.02,397.63 1068.97,-70.03 362.96,-170.78 757.5,-249.49 741.09,-497.87 -18.39,-278.15 -266.38,-1147.19 -379.03,-1467.95 -53.14,-151.3 -106.84,-369.61 -301.31,-284.74z"/>
   <path class="fil1" d="M5553.92 11678.19c488.66,-135.16 620.23,-140.93 1084.86,-170.86 242.34,-15.62 274.16,-53.27 320.55,27.6 39.24,68.4 165.63,522.44 203.21,635.04 69.61,208.75 156.87,396.31 222.86,595.53l-1354.43 207.3c-73.35,-217.2 -176.29,-425.97 -254.29,-650.79 -73.91,-213.02 -154.31,-433.2 -222.76,-643.82zm1393.43 -503.13c-486.05,50.83 -1061,99.85 -1531.62,224.24 -223.53,59.08 -264.69,119.62 -182.76,350.37 103.86,292.45 199.86,573.58 307.52,855.34 376.91,986.57 144.31,711.61 1958.4,413.01 426.02,-70.11 224.87,-59.66 -106.57,-1147.6 -46.05,-151.2 -95.1,-296.51 -139.09,-442.75 -56.92,-189.17 -92.01,-274.98 -305.88,-252.61z"/>
   <path class="fil1" d="M22343.46 4571.8c154.47,-156.9 338.33,-302.1 515.18,-442.77l535.55 -420.35 61.93 80.19c16.84,27.39 25.44,45.83 41.54,74.52 196.32,350.02 414.28,712.58 521.99,1106.94 -87.47,54.22 -183.29,130.93 -279.55,203.39l-788.05 612.53c-93.41,-240.76 -543.42,-965.56 -608.59,-1214.45zm1057.91 -1261.07c-90.77,29.34 -624.14,471.67 -749.05,565.93 -144.71,109.16 -641.74,508.4 -656.81,650.94 -12.79,121.09 146.27,332.8 208.96,442.38l459.41 844.34c313.26,559.33 139.69,450.38 1031.31,-220.33 134.89,-101.49 235.27,-176.24 375.78,-275.51 116.5,-82.33 319.26,-169.93 279.15,-369.24 -44.51,-221.15 -492.22,-1057.91 -643.79,-1317.61 -62.09,-106.32 -185.08,-359.63 -304.96,-320.9z"/>
   <path class="fil1" d="M3973.8 17871.1c155.21,-99.05 440.43,-252.84 617.3,-329.28l922.16 966.48c-225.67,168.04 -898.14,622.77 -1131.59,743.96 -91.3,-58.55 -168.4,-134.04 -254.48,-230.57 -192.41,-215.77 -413.86,-382.98 -712.77,-743.17l559.38 -407.42zm598.33 -668.91c-106.87,31.11 -323.27,172.25 -429.42,232.15 -148.59,83.84 -276.91,165.69 -417.61,257.57 -1031.89,673.82 -798.05,517 -84.46,1304.45 114.76,126.63 580.94,612.13 740.03,607.56 103.38,-2.95 666.64,-438.71 797.63,-528.82 144.6,-99.45 743.62,-463.62 729.05,-579.94 -8.18,-65.2 -257.51,-268.36 -318.63,-329.97 -253.52,-255.64 -548.48,-615.85 -790.95,-884.55 -49.74,-55.12 -122.02,-108.61 -225.64,-78.45z"/>
   <path class="fil1" d="M34491.64 21489.92l1119.9 -742.45c96.82,48.02 904.4,871.01 970.18,975.16 -163.18,173.13 -963.16,664.3 -1179.61,737.44l-441.91 -482.14c-92.65,-107.98 -419.48,-367.02 -468.56,-488.01zm1055.81 -1073.4l-1173.05 813.7c-374.75,268.96 -404.41,200.96 99.64,675.7 178.2,167.82 477.37,548.43 626.91,699.76 99.82,101.04 188.48,284.14 411.38,158.48 385.57,-217.38 863.33,-507.93 1208.58,-769.69 441.17,-334.51 272.74,-298.04 -99.69,-699.42 -270.81,-291.81 -336.49,-397.68 -658.25,-668.75 -88.88,-74.89 -249.78,-290.58 -415.52,-209.78z"/>
   <path class="fil1" d="M28396.28 6839.91c216.61,-58.89 1184.79,-366.36 1336.38,-345.3 88.48,779 83.12,504.95 59.56,1268.06 -5.15,166.61 35.25,115.21 -371.01,207.62l-939.33 240.62 -85.6 -1371zm-125.31 1717.12c125.21,18.92 685.19,-166.08 878.59,-208.51 166.55,-36.52 819.19,-152.81 891.09,-225.56 107.95,-109.24 51.27,-834.04 40.4,-1043.5 -10.82,-208.65 -26.81,-888.72 -177.95,-947.09 -124.45,-48.05 -1650.97,390.42 -1749.92,475.76 -113.73,98.05 -62.62,280.73 -44.49,436.07 19.84,169.96 35.7,337.55 50.61,507.27 23.64,269.2 35.07,804.39 111.67,1005.56z"/>
   <path class="fil1" d="M20043.15 34524.01l123.1 130.46c48.23,62.24 47.94,58.26 111.64,120.85l627.02 793.65c-49.09,130.72 -739.93,968.83 -861.76,1070.47 -96.52,-88.37 -151.49,-169.75 -233.45,-255.85 -347.91,-365.49 -343.69,-470.22 -623.23,-830.69l856.68 -1028.89zm-678.62 343.37c-226.01,292.08 -611.61,530.76 -498.48,760.24l565.05 763.1c109.09,134.94 509.04,675.16 676.36,643.13 87.18,-16.68 410.08,-442.46 488.95,-539.04 148.25,-181.51 705.36,-784.12 652.82,-988.65l-917.53 -1087.07c-134.82,-150.91 -201.39,-297.83 -367.08,-293.03l-600.09 741.32z"/>
   <path class="fil1" d="M12845.78 6130.97c35.18,-420.72 261.21,-928.8 346.97,-1332.21 166.92,51.66 528.03,213.44 668.04,300.5 185.24,115.15 390.06,259.91 572.58,355.54 -45.47,198.77 -136.03,444.65 -198.49,638.8 -72.11,224.22 -113.59,433.2 -181.12,656.99 -187.4,-78.21 -424.65,-205.08 -615.4,-298.12l-592.58 -321.5zm1398.66 970.26c51.13,-57.32 248.93,-795.08 292.47,-937.83 115.37,-378.18 339.02,-792.46 139.72,-925.9 -214.24,-143.44 -548.38,-319.63 -791.06,-443.15 -195.61,-99.58 -661.16,-374.93 -900.91,-338.99 -92.83,131.54 -225.53,701.58 -288.52,914.55 -47.05,159.22 -85.52,318.02 -122.88,481.33 -133.05,581.49 -145.53,421.43 820.8,879.61 179.06,84.92 671.02,380.67 850.38,370.38z"/>
   <path class="fil1" d="M35591.2 19161.38l-1122.88 -775.2c172.36,-137.4 310.02,-327.81 465.33,-483.07 84.52,-84.49 158.09,-139.82 244.4,-220.99 77.61,-72.96 168.83,-193.84 247.33,-244.21 152.81,55.46 461.85,271.94 595.8,361.87l412.24 284.61c79.09,52.72 100.83,50.16 141.04,133.1 -119.79,79.19 -322.18,353.56 -465.34,488.85 -164.49,155.44 -358.28,287.83 -517.92,455.04zm-273.56 -2046.53c-101.56,45.83 -246.43,237.77 -325.06,335.51 -192.37,239.15 -965.33,933.92 -896.74,1062.61 24.85,46.66 316.85,213.42 391.55,261.9l773.33 552.38c382.72,286.02 324.72,247.02 789.61,-167.84 224.24,-200.12 458.38,-460.38 654.54,-672.24 395.94,-427.63 312.4,-388.95 -121.88,-691.48 -138.01,-96.16 -264.25,-184.92 -401.72,-273.58 -173.47,-111.86 -674.25,-492.7 -863.63,-407.26z"/>
   <path class="fil1" d="M32789.67 12012.96c76.34,-204.47 184.02,-417.1 237.35,-627.06 247.36,17.2 1194.66,141.3 1365.72,215.32 -54.41,207.3 -137.71,481.67 -217.22,680.07 -85.41,213.21 -198.03,404.18 -288.88,618.73 -192.95,-14.8 -454.07,-89.45 -660.03,-126.76 -224.89,-40.77 -439.24,-67.34 -662.16,-98.74l225.22 -661.56zm94.83 -933.89c-141.43,53.38 -146.05,219.01 -199.01,386.86 -99.66,315.8 -411.74,1140.53 -444.57,1304.11 -47.26,235.32 152.33,179.8 362.69,208.03 374.78,50.27 1330.15,307.73 1457.39,213.16 134.6,-100.01 616.96,-1400.39 659.79,-1667.93 40.4,-252.42 -90.69,-222.47 -308.04,-258.84 -305.23,-51.05 -1348.57,-253.21 -1528.25,-185.39z"/>
   <path class="fil1" d="M7952.75 31195.61c-5.91,2.32 -13.24,5.48 -17.81,6.65 -4.67,1.18 -12.61,4.51 -18.6,5.77l-263.98 19.77c8.71,-76.92 1.93,-114.21 43.38,-161.89 -36.97,-362.37 127.74,-891.28 202.89,-1236.74l1340.95 -48.95c-14.23,95.63 -153.05,1277.43 -213.79,1335.2 -85.07,65.75 -911.2,94.94 -1073.04,80.19zm1391.53 -1729.42c-377.28,37.63 -1496.18,34.49 -1554.36,43.93 -166.16,27 -174.61,154.03 -209.17,322.38 -97.98,476.97 -176.93,903.41 -211.1,1397.07 -14.62,210.83 -24.99,316.85 198.43,313.58 467.08,-6.89 1025.64,-35.67 1491.56,-93.86 412.96,-51.58 268.47,-265.66 396,-1207.03 21.4,-157.79 41.61,-314.66 61.98,-475.63 28.71,-226.71 55.39,-323.27 -173.34,-300.44z"/>
   <path class="fil1" d="M5447.82 25718.13c-205.53,-53.81 -452.62,-149.75 -646.78,-225.9 -185.98,-72.96 -458.13,-208.01 -637.51,-252.69 75.78,-250.91 568.35,-968.88 776.65,-1173.73 180.15,50.22 421.59,174.26 611.13,256.83 192.86,83.99 439,148.22 617.83,239.07 -18.26,75.99 -24.49,65.02 -79.43,149.46l-451.27 711.87c-58.19,90.48 -128.11,211.39 -190.62,295.09zm-1645.19 -311.21c94.39,80.08 1641.04,775.33 1835.89,597.9 30.82,-28.07 408.81,-696.93 463.99,-792.93 603.98,-1050.98 692.9,-691.77 -461.51,-1187.72 -150.41,-64.59 -286.41,-126.92 -436.58,-192.01 -430.16,-186.43 -355.22,-192.97 -729.76,333.87 -88.85,124.95 -159.35,232.13 -253.03,374.73 -101.01,153.75 -435.89,650.28 -419,866.16z"/>
   <path class="fil1" d="M23068.39 34198.92c119.24,69.61 991.92,778.13 1050.21,858.08 -75.2,203.55 -204.16,456.95 -301.74,632.82l-329.57 584.03c-104.94,-57.32 -198.01,-140.91 -290.05,-205.43 -111.12,-77.87 -174.63,-137.11 -271.95,-216.19 -102.64,-83.41 -163.68,-135.68 -251.86,-237.19 -85.21,-98.11 -162.34,-156.5 -246.56,-240.86l641.52 -1175.26zm1377.49 904.63c83.78,-213.5 -119.22,-290.5 -232.92,-376.7l-1103.75 -850.86c-225.13,-159.59 -235.11,32.3 -330.47,215.79 -76.08,146.43 -145.76,280.76 -224,428.61 -463.18,875.48 -677.36,801.72 -197.14,1223.68l709.76 593.71c512.92,407.71 561.05,406.63 725.41,71.57 238.59,-486.32 419.03,-709.4 653.11,-1305.8z"/>
   <path class="fil1" d="M33885.77 24442.57c154.73,-24.09 979.67,-419.29 1237.08,-459.66 119.56,122.25 670.24,998.17 741.82,1160.58 -214.47,81.43 -398.63,190.33 -631.28,273.37 -180.97,64.57 -504.68,162.76 -698.18,196.51 -54.99,-151.78 -236.67,-430.38 -326.02,-579.73 -102.54,-171.43 -273.1,-392.64 -341.34,-540.8 -8.76,-8.05 -63.91,-25.44 17.92,-50.27zm-413.75 -96.21c-7.89,138.9 331.15,589.28 463.33,820.96 88.61,155.29 364.3,732.22 505.44,773.51 121.81,35.63 820.75,-227.61 964.61,-282.23 184.08,-69.88 806.4,-288.92 844.98,-433.89 25.2,-94.78 -375.31,-694.93 -447.27,-807.55 -587.32,-919.36 -508.95,-864.1 -985.16,-648.68 -346.99,157.01 -1131.62,442.89 -1345.93,577.88z"/>
   <path class="fil1" d="M4131.47 14860.67c331.08,-171.07 922.73,-407.42 1329.36,-472.78 90.87,204.34 366.62,651.37 503.41,865.02 51.93,81.07 145.37,201.1 175.16,279.6 -143.39,89.43 -1105.15,452.57 -1279.23,493.15 -92.72,-196 -578.51,-837.97 -728.7,-1164.99zm2394.08 796.94c8.47,-150.43 -141.86,-302.31 -218.78,-420.74l-464.44 -792.51c-256.64,-472.86 -171.88,-508.27 -1252.76,-100.19 -1061.34,400.66 -921.01,401.87 -629.09,865.05 138.61,219.91 651.13,1071.5 774.25,1134.49 137.56,70.4 337.44,-62.04 456.26,-118.03 364.09,-171.52 1062.93,-407.39 1334.56,-568.07z"/>
   <path class="fil1" d="M3658.98 21534.57c153.41,-159.04 627.8,-633 769.24,-689 283.39,161.41 794.49,603.95 1101,731.67 -39.68,87.95 -898.17,948.49 -961.39,986.09 -167.06,-72.04 -451.67,-266.17 -592.63,-364.57 -96.47,-67.34 -183.07,-126.02 -274.87,-189.85 -75.87,-52.73 -222.03,-138.83 -272.72,-193.18l231.37 -281.16zm697.99 -1030.68c-90.72,29.07 -282.82,229.56 -359.23,299.17 -195.88,178.43 -920.05,850.75 -957.65,1045.46 -26.1,135.27 131.94,198.54 317.1,317.23 231.12,148.14 1058.68,760.9 1255.68,745.94 85.21,-6.49 152.94,-79.08 197.8,-131.3 55.44,-64.52 89.06,-102.75 152.41,-173.18 193.92,-215.64 936.88,-1000.34 946.64,-1056.04 16.29,-92.94 -63.3,-119.51 -143.67,-165.42 -253.64,-144.82 -731.98,-491.7 -980,-672.53 -62.38,-45.47 -117,-88.06 -186.11,-139.99 -59.13,-44.41 -138.71,-102.78 -242.97,-69.34z"/>
   <path class="fil1" d="M16776.73 34420.78c96.9,-73.54 162.84,-143.78 267.28,-205.87 49.98,162.52 549.17,966.85 609.49,1214.44 -107.05,116.42 -874.05,754.97 -1054.48,863.21 -159.51,-143.76 -539.75,-986.41 -621.05,-1255.8l798.76 -615.98zm-1131.19 636.22c43.33,196.01 497.59,1060.03 643.53,1310.44 278.15,477.16 218.96,434.23 1065.44,-252.58l350.87 -299.97c427.31,-369.44 350.63,-312.89 76.31,-799.95 -872.6,-1549.16 -455.81,-1370.89 -1480.19,-604.71 -279.52,209.03 -706.46,418.31 -655.96,646.77z"/>
   <path class="fil1" d="M33821.2 15443.85c54.09,-134.41 671.84,-1103.3 747.47,-1162.2 257.32,118.22 1074.22,357.58 1265.47,498.93 -258.88,541.07 -376.09,614.01 -668.81,1027.23l-85.54 104.2c-2.75,2.8 -11.22,16.5 -13.25,12.46 -2.03,-4.09 -8.81,8.52 -13.51,12.45 -417.68,-146.55 -787.66,-354.72 -1231.83,-493.07zm596.22 -1480.64c-108.43,46.37 -402.15,624.3 -488.85,771.12 -666.52,1128.42 -701.82,744.78 361.4,1212.3 146.52,64.44 289.41,127.3 434.7,193.13 127.05,57.55 348.49,197.4 484.89,108.48 100.46,-65.49 961.13,-1345.4 985.38,-1557.56 20.6,-180.09 -223.71,-214.95 -356.79,-269.33 -261.36,-106.84 -1247.08,-532.39 -1420.73,-458.14z"/>
   <path class="fil1" d="M25954.01 33256.45c242.64,97.44 941.1,462.09 1204.34,613.84 -43.14,246.01 -268.17,1143.78 -366.57,1324.19 -329.65,-68.03 -942.63,-475.79 -1227.61,-653.8l389.84 -1284.23zm1525.03 637.01c46.12,-229.62 -92.23,-262.74 -256.46,-338.02l-1241.04 -596.17c-251.63,-124.23 -261.71,-76.02 -316.41,179.04 -64.57,301.18 -425.47,1347.38 -432.41,1410.08 -23.22,210.07 151.52,250.76 291.87,333.32 348.94,205.29 845.55,478.24 1214.71,623.56 249.73,98.29 285.56,77.68 350.87,-149.14 144.81,-503 280.73,-924.45 388.87,-1462.67z"/>
   <path class="fil1" d="M31001.33 31030l-174.95 -1320.92c325.73,-53.06 1004.72,52.2 1373.96,59.64l194.02 1372.95c-379.66,3.06 -1056.7,-3.01 -1393.03,-111.67zm1119.53 408.37c167.48,0 531.78,33.96 600.07,-81.49 35.12,-150.75 -93.3,-932.49 -124.1,-1125.73 -141.46,-887.03 -132.22,-763.8 -592.31,-770.9l-1303.19 -40.61c-309.94,-6.17 -193.89,103.18 -120.19,659.89 37.65,284.43 65.57,577.28 90.09,864.16 37.86,442.62 92.67,381.95 521.38,429.4 298.76,33.03 622.79,65.28 928.25,65.28z"/>
   <path class="fil1" d="M15878.33 4944.15c58.84,-180.17 536.69,-1114.04 627.59,-1215.15 195.11,111.8 394.91,287.59 566.54,416.07 173.31,129.77 324.74,347.7 498.19,476.31 -144.87,342.27 -480.09,776.92 -625.41,1185.29 -87.47,-39.61 -188.48,-140.33 -280.25,-206.74 -106.74,-77.24 -173.42,-125.11 -274.56,-214.03 -81.75,-71.88 -175.11,-157.32 -263.69,-225.58 -71.06,-54.76 -200.36,-156.48 -248.41,-216.17zm489.35 -1588.3c-96.31,47.26 -201.28,313.19 -252.6,406.92 -79.24,144.68 -151.84,268.6 -229.86,420.98 -541.63,1057.86 -467,785.92 415.78,1477.5 122.41,95.89 235.24,193.71 362.38,289.05 65.54,49.18 311.13,275.35 400.29,226.77l701.13 -1253.61c273.27,-447.18 110.01,-413.93 -86.6,-616.72l-519.19 -457.97c-96.95,-80.25 -650.95,-561.79 -791.33,-492.92z"/>
   <path class="fil1" d="M8977.53 8977.43c40.76,43.52 13.8,-18.84 35.43,85.84l156.8 1233.23c-374.57,27.87 -983.72,-33.32 -1362.88,-69.79 -66.65,-423.28 -182.33,-936.17 -199.22,-1370.16 247.01,9.64 1223.36,14.2 1369.87,120.88zm-1081.93 1563.58c504.86,0 1139.92,69.74 1587.5,18.86 37.08,-142.7 -60.61,-578.4 -83.19,-766.25 -145.87,-1213.23 26.75,-1100.38 -623.03,-1168.8 -556.61,-58.6 -723.93,-61.93 -1253.6,-61.93 -344.81,0 -267.07,139.27 -227.78,427.55 28.42,208.57 52.51,428.85 82.75,637.02 132.83,914.21 125.76,913.55 517.35,913.55z"/>
   <path class="fil1" d="M4145.03 16677.03c-258.57,137.24 -553.68,309.76 -809.11,462.65 -138.75,83.04 -274.01,164.34 -398.5,253.18 -283.5,202.34 -105.81,334.01 -16.68,352.51 120.25,24.96 258.02,-112.65 425.07,-223.76 303.64,-202.02 533.9,-311.27 818.9,-484.02 545.16,-330.45 542.79,-137.32 -94.28,-1031.03 -92.93,-130.38 -456.18,-707.94 -534.79,-768.82 -175.81,-136.21 -330.34,1.77 -169.98,263.61 95.65,156.16 159.64,244.08 267.17,384.51l512.2 791.17z"/>
   <path class="fil1" d="M9200.71 6852.37c0,393.01 -27.02,740.4 -39.48,1127.92 -111.19,25.7 -1109.68,-134.02 -1476.31,-127.11 -272.18,5.12 -304.64,331.05 93.12,341 371.69,9.29 1585.48,174.47 1653.48,122.12 87.26,-101.59 47.13,-299.44 47.36,-439.98 0.37,-201.96 48.82,-1345.37 15.33,-1434.72 -1.16,-3.14 -293.5,-418.71 -293.5,410.77z"/>
   <path class="fil1" d="M35351.81 28120.94c39.69,-202.41 -180.72,-614.47 -256.88,-785.2l-287.22 -772.7c284.58,-176.74 1902.49,-427.68 1457.36,-770.69 -107.63,-82.9 -240.83,4.38 -351.87,48.32l-1445.44 486.08c-143.36,96.36 49.95,380.69 175.85,668.99 98.08,224.64 181.59,447.95 276.61,677.47 96.53,233.15 163.16,596.64 431.59,447.73z"/>
   <path class="fil1" d="M37298.03 21242.7c61.58,-173.55 -198.04,-405.89 -329.42,-504.55 -75.07,-56.39 -91.06,-86.18 -157.27,-144.81l-613.18 -619.57 248.85 -230.71c51.46,-47.15 89.17,-66.1 141.12,-116.05 146.24,-140.64 745.94,-632.18 750.51,-790.66 2.37,-82.7 -42.36,-133.02 -109.72,-151.49 -181.76,-49.87 -260.36,160.56 -567.96,433.75l-804.99 730.64c-163.18,153.81 -58.61,205.26 46.41,303.21l660.24 618.6c121.11,122.14 277.77,229.09 398.23,370.26 102.2,119.77 149.67,165.61 337.18,101.38z"/>
   <path class="fil1" d="M4155.19 23398.16c-96.42,152.76 -938.83,1192.39 -871.89,1377.13 24.36,67.2 109.43,123.91 204.05,102.33 101.46,-23.17 183.45,-218.02 282.72,-368.4l801.64 -1159.5c9.45,-135.58 -253.55,-235.61 -356.97,-296.99 -205.74,-122.15 -1145.68,-713.48 -1232.75,-719.92 -92.54,-6.86 -321.24,91.51 -25.39,303.11 198.57,141.99 532.47,312.32 803.2,499.43 70.61,48.81 125.53,84.36 196.32,129.56 45.76,29.24 63.52,38.52 100.96,61.75l98.11 71.5z"/>
   <path class="fil1" d="M6931.91 29537.73c-55.31,327.75 -325.7,1338.27 -266.01,1610.7 173.47,144.68 300.13,52.66 326.04,-182.05 21.72,-196.87 56.87,-394.01 92.41,-583.76 47.58,-253.93 236.56,-896.22 188.27,-1104.99 -109.71,-50.64 -1804.54,-247.88 -1888.45,-199.65 -16.7,9.58 -234.84,193.95 122.89,267.86l1424.85 191.89z"/>
   <path class="fil1" d="M9210.39 32046.07c-0.95,225.29 -59.84,1569.03 107.77,1655.16 343.59,59.03 238.88,-249.78 224.87,-505.74 -14.57,-265.85 -16.44,-524.37 -14.06,-791.4 1.66,-189.2 84.62,-678.52 -122.15,-698.23l-1464.52 142.06c-109.93,9.08 -260.97,3.2 -331,63.1 -89.77,76.73 -94.04,209.38 51.7,238.32 187.34,37.24 557.13,-39.34 760.5,-57.68 254.95,-23.01 529.46,-27.2 786.89,-45.59z"/>
   <path class="fil1" d="M35852.09 23329.74l804.33 -469.5c113.6,-70.12 534.79,-297.04 554.26,-421.2 15.49,-98.79 -53.75,-171.38 -136.36,-185.02 -126.95,-20.96 -331.03,167.45 -424.07,228.01 -138.96,90.48 -262.24,160.56 -404.23,247.54 -1039.05,636.4 -995.69,271.44 -320.02,1261.28 73.62,107.87 471.59,723.38 532.36,772.32 70.37,56.71 392.38,116.16 172.12,-266.56 -86.42,-150.14 -173.55,-256.64 -269.44,-381.56l-508.95 -785.31z"/>
   <path class="fil1" d="M5192.94 13445.39c-154.31,48.9 -1473.3,412.43 -1524.46,584.24 -27.53,92.46 41.56,181.7 102.88,205.64 102.51,39.97 330.92,-87.13 439.85,-129.96 286.96,-112.78 630.47,-209.28 930.15,-302.74 616.93,-192.39 519.82,-49.53 107.02,-1044.85 -60.66,-146.24 -309.99,-807.9 -367.33,-867.09 -111.83,-115.44 -306.91,-75.07 -215.22,215.37 82.36,260.87 442.12,1010.55 527.11,1339.39z"/>
   <path class="fil1" d="M32725.5 10720.47c101.11,50.63 1293.92,171.12 1581.04,205.82 182.57,22.03 407.2,71.19 371.9,-187.62 -160.44,-133.33 -532.92,-133.09 -775.1,-154.07 -286.51,-24.81 -546.11,-100.35 -838.32,-122.7 80.22,-486.9 209.01,-892.71 274.66,-1433.3 25.57,-210.47 -121.48,-324.25 -264.58,-198.99 -73.49,64.31 -161.31,780.93 -195.08,946.91 -44.23,217.24 -203.76,767.86 -154.52,943.95z"/>
   <path class="fil1" d="M30517.89 32101.58l-31.19 1327.97c3.4,256.53 245.8,334.32 286.04,70.05 34.75,-228.3 19.34,-426.36 19.26,-653.34 -0.08,-278.6 36.47,-559.97 43.72,-841.39 217.17,19.45 1440.9,199.65 1591.18,123.1 127.42,-64.89 114.91,-309.84 -143.05,-318.02 -394.62,-12.53 -705.27,-39.34 -1090.29,-89.45 -768.24,-99.98 -675.3,-130.01 -675.67,381.08z"/>
   <path class="fil1" d="M6892.73 10510.48c-475.47,54.86 -973.29,62.77 -1454.15,167.9 -319.07,69.77 -219.57,372.8 144.21,309.05 371.53,-65.13 1604.55,-149.75 1655.19,-228.52 31.24,-131.25 -139.88,-855.87 -175.93,-1050.52 -32.16,-173.69 -62.22,-335.94 -93.62,-511.12 -36.1,-201.42 -29,-381.88 -277.67,-335.73 -121.04,184.95 26.04,573.16 72.25,801.14 48.23,237.91 102.64,606.04 129.72,847.8z"/>
   <path class="fil1" d="M33304.67 31125.79c122.22,-121.68 -42.14,-649.34 -71.27,-788.61 -51.72,-247.3 -93.7,-588.01 -129.09,-841.44 436.79,-81.35 1257.64,-62.61 1606.21,-223.68 66.55,-234.16 -50.53,-306.12 -277.17,-259.26 -460.16,95.13 -1588.48,119.67 -1663.52,225.54 -66.47,93.78 42.37,406.65 64.64,520.33l196.03 1060.55c25.5,147.35 67.56,436.28 274.17,306.57z"/>
   <path class="fil1" d="M11895.5 6010.96c-330.6,-85.1 -1289.78,-501.2 -1588.64,-444.04 -194.95,362.66 155.13,295.4 747.47,500.32 209.96,72.65 867.45,346.1 1048.18,312.14 77.68,-41.77 448.13,-1779.32 432.46,-1839.22 -20.14,-76.86 -182.94,-261.86 -289.07,76.9 -46,146.89 -79.8,310.86 -112.31,470.74 -62.93,309.45 -158.51,614.3 -238.09,923.16z"/>
   <path class="fil1" d="M12181.93 33660.64c-149.22,-42.03 -305.48,48.32 -458.58,103.89 -139.53,50.64 -299.73,94.63 -443.54,138.35 -338.29,102.83 -1111.56,239.12 -939.12,499.96 112.88,170.77 1068.07,-295.67 1604.1,-371.06 83.91,178.32 256.43,1486.94 424.49,1575.18 265.56,52.25 250.26,-172.01 194.61,-353.98 -119.72,-391.43 -307.2,-1455.99 -381.96,-1592.34z"/>
   <path class="fil1" d="M28048.42 5967.26c-123.31,-303.87 -237.72,-1520.24 -449.9,-1578.32 -401.59,-109.93 -64.62,714.72 6.01,1045.83 34.41,161.12 69.3,318.84 100.51,481.51 117.11,610.34 5.23,495.24 1044.59,172.02 318.6,-99.08 1087.26,-230.97 906.11,-493.28 -118.27,-171.25 -1164.83,344.59 -1607.32,372.24z"/>
   <path class="fil1" d="M24813.75 5012.07c145.2,21.98 363.69,-157.4 476.2,-220.17l908.15 -510.52c178.61,-94.65 351.58,-147.55 253.68,-388.36 -219.83,-33.25 -583.97,236.64 -752.11,331.37 -209.23,117.84 -530.75,294.45 -744.3,388.31 -132.26,-279.54 -243.95,-584.1 -386.52,-866.03 -70.99,-140.4 -136.06,-277.4 -208.12,-420.42 -161.57,-320.71 -323.9,-115.02 -340.5,-53.33 -28.63,106.31 312.74,734.88 378.84,876.4 97.11,207.88 293.43,751.87 414.68,862.75z"/>
   <path class="fil1" d="M27893.37 33623.57c-74.04,81.96 -457.58,1768.73 -428.08,1852.83 19.47,55.52 173.23,259.91 291.34,-106.42 50.85,-157.69 75.28,-306.67 108.32,-471.43 61.74,-307.86 159.3,-600.18 235.16,-906.88 383.14,93.15 1321.47,530.94 1608.51,423.78 89.96,-276.27 -26.36,-274 -263.16,-335.59 -336.62,-87.58 -1416.28,-486.85 -1552.09,-456.29z"/>
   <path class="fil1" d="M14970.03 4630.43c-388.5,-218.56 -801.88,-497.13 -1209.48,-687.59 -369.74,-172.79 -336.52,110.69 -310.82,169.59 34.25,78.5 692.27,403.04 809.85,471.77 146.87,85.82 273.08,159.96 408.16,243.14 529.99,326.22 412.56,371.47 854.07,-611.03 62.46,-138.92 390.03,-781.22 385.04,-877.37 -3.32,-64.31 -112.3,-335.06 -315.53,39.13 -77.37,142.44 -129.67,272.37 -198.59,428.93 -57.16,129.79 -360.93,755.99 -422.7,823.43z"/>
   <path class="fil1" d="M22977.09 2920.91c-159.61,-19.02 -292.42,122.44 -385.33,197.51 -145.76,117.77 -787.37,729.9 -949.62,800.27 -116.48,-183.7 -276.91,-400.55 -410.35,-582.31 -75.47,-102.8 -142.81,-189.17 -219.54,-291.97 -107.82,-144.42 -267.52,-388.4 -386.73,-386.02 -70.51,1.42 -132.57,52.03 -153.15,111.33 -45.47,131.01 110.19,268.19 162.41,326.38 290.89,323.93 587.88,805.1 857.21,1166.73 168.33,225.96 312.19,-77.28 581.31,-290.49l681.45 -597.78c228.7,-190.33 346.52,-246.14 222.34,-453.65z"/>
   <path class="fil1" d="M36218.63 14142.09c368.47,-190.35 -500.88,-412.43 -572.65,-435.81 -302.82,-98.63 -570.28,-232.71 -870.52,-315.69 59.32,-193.9 198.67,-446.05 283.77,-644.93 97.71,-228.44 176.72,-428.32 264.98,-665.07 127.37,-341.53 -189.54,-465.36 -318.28,-85.94 -145.47,428.82 -361.11,899.36 -552.39,1309.04 -176.24,377.47 28.39,318.05 355.22,425.13 235.8,77.26 457.19,155.89 692.75,238.27 150.75,52.75 583.44,250.13 717.12,175z"/>
   <path class="fil1" d="M5222.55 26608.17c-80.61,291.76 -635.72,1272.94 -579.65,1537.31 256.22,268.2 342.82,-137.6 419.85,-342.9 597.33,-1592.44 915.53,-1264.37 -157,-1623.92 -126.11,-42.27 -981.69,-364.96 -1073.54,-349.5 -133.52,22.49 -210.84,177.04 -32.51,267.83 200.17,101.94 474.73,168.83 706.6,248.54 239.09,82.23 467.84,202.9 716.25,262.64z"/>
   <path class="fil1" d="M13543.57 36107.53c196.53,41.45 602.65,-246.72 763.61,-340.34 194.21,-112.97 529.89,-288.73 732.41,-376.65 98.58,166.66 396.78,945.82 609.91,1314.66 113.76,196.87 308.41,180.49 333.98,-3.06 9.53,-68.24 -315.27,-681.35 -395.41,-866.24 -445.78,-1028.44 -290.92,-977.86 -895.32,-614.35l-914.02 505.48c-159.62,92.72 -350.82,137.87 -235.16,380.5z"/>
   <path class="fil1" d="M35425.06 16729.49c140.12,103.01 293.14,174.73 430.88,257.72l895.77 547.01c138.24,82.7 368.78,254.93 437.39,-0.4 -52.25,-178.35 -469.64,-354.64 -661.5,-473.88 -121.14,-75.31 -219.57,-136.27 -337.18,-221.08 -109.66,-79.11 -249.38,-151.54 -349.39,-235.87 28.58,-55.7 608.33,-833.63 803.89,-1154.44 203.76,-334.27 -100.96,-334.85 -151.62,-315.38 -73.44,28.26 -472.33,665.85 -548.8,778.74 -116.5,171.94 -528.43,612.6 -519.44,817.58z"/>
   <path class="fil1" d="M18274.55 3924.97c-32.88,-21.85 -806.89,-747.34 -1037.46,-921.75 -331.98,-251.1 -354.17,56.97 -348.02,94.28 16.51,100.29 214.6,218.06 332.98,316.14 1379.94,1143.39 874.55,1253.68 1654.76,247.43l565.95 -761.74c34.73,-94.55 -15.67,-191.36 -82.69,-211.34 -149.04,-44.43 -408.98,382.72 -490.62,500.65 -91.33,131.96 -189.25,246.4 -285.38,366.49 -51.72,64.54 -99.16,111.75 -149.35,176 -32.43,41.48 -38.58,53.41 -68.45,94.52l-91.72 99.32z"/>
   <path class="fil1" d="M17015.06 37080.19c148.35,20.82 308.92,-127.72 387.21,-196.67 256.56,-225.98 332.82,-324.61 619.28,-543.26 104.44,-79.71 228.2,-198.8 322.8,-251.99l750.58 1010.81c80.11,100.64 200.46,300.39 345.35,234.48 218.38,-180.02 -7.67,-335.97 -101.4,-455.34 -114.28,-145.53 -214.4,-268.99 -324.72,-419.56 -689.9,-941.49 -505.05,-987.43 -1053.04,-459.08 -110.98,107.03 -266.85,221.33 -374.3,324.77 -388.29,373.75 -711.56,472.04 -571.76,755.84z"/>
   <path class="fil1" d="M24883.54 34968.87c-80.77,65.1 -805.26,1623.63 -791.93,1713.19 12.16,81.67 88.29,171.62 194.5,110.98 127.24,-72.67 585.82,-1260.15 737.07,-1422.11 287.15,122.41 1135.1,754.7 1448.95,753.33 210.96,-239.07 38.34,-296.09 -163.21,-397.34 -161.17,-81.01 -313.61,-162.89 -470.32,-252.1 -219.68,-125.05 -806.82,-522.1 -955.06,-505.95z"/>
   <path class="fil1" d="M2685.1 18788.88c-32.66,210.59 386.76,511.35 529.28,633.74l584.61 609.46 -538.06 476.53c-198.2,161.59 -346.12,342.66 -519.62,504.63 -112.59,105.12 -127.79,274.27 42.8,306.91 148.37,28.36 243.71,-131.73 299.97,-196.93 191.46,-221.92 789.56,-725.12 1067.94,-979.91 156.82,-143.55 23.43,-228.23 -72.38,-306.81 -52.38,-42.98 -79.03,-80.19 -130.03,-124.78 -52.2,-45.63 -91.25,-69.45 -139.25,-117.77 -106.37,-107.13 -161.33,-156.05 -264.77,-246.9l-527.61 -496.53c-119.35,-120.3 -158.14,-176.11 -332.88,-61.64z"/>
   <path class="fil1" d="M30531.9 8282.1l1771.82 -152.35c182.84,-47.29 232.29,-314.33 -89.77,-288.36l-1426.94 118.11c2.46,-416.29 20.19,-1109.27 -29.47,-1494.92 -16.2,-125.89 -72.67,-221.94 -228.12,-159.98 -125.42,49.97 -97.58,208.72 -85.15,361.79 33.14,408.69 25.49,822.94 21.35,1233.21 -1.43,140.67 -37.53,300.52 66.28,382.5z"/>
   <path class="fil1" d="M21718.66 36076.13c47.05,23.93 311.45,268.14 363.01,317.22l702.53 623.38c266.51,216.69 343.35,-38.03 316.2,-129.64 -25.36,-85.5 -282.08,-264.48 -353.85,-321.61 -1148.77,-914.48 -901.23,-1205.53 -1361.93,-585.74 -137.26,184.68 -819.92,1075.85 -837.1,1140.24 -26.42,99 25.62,202.28 121.48,197.93 136.95,-6.18 393.12,-409.08 466.56,-516.27l583.1 -725.51z"/>
   <path class="fil1" d="M17645.01 6381.3l750.42 -1314.95 797.66 843.86c63.57,80.56 176.21,246.64 293.24,261.66 218.46,-189.01 -239.75,-616.7 -418.79,-833.41 -89.69,-108.56 -596.17,-708.66 -717.84,-690.93 -128.93,18.76 -471.48,694.65 -551.46,845.19 -137.22,258.19 -575.51,907.61 -153.23,888.58z"/>
   <path class="fil1" d="M34727.89 23095.64c-536.93,390.26 -1239.01,499.48 -1366.54,674.87 53.75,270.61 472.91,62.38 655.59,-11.63 236.72,-95.89 440.53,-185.45 660.02,-293.72 104.02,-51.29 205.87,-99.69 314.4,-151.94 142.86,-68.79 232.84,-111.38 103.05,-282.15 -139.65,-183.74 -786,-868.54 -922.55,-1009.02 -63.62,-65.5 -155.53,-185.64 -282.74,-186.09 -202.26,-0.68 -180.12,158.75 -85.1,251.16l923.87 1008.52z"/>
   <path class="fil1" d="M30037.96 8807.16c0,965.37 -50.48,705.96 -113.54,1349.65 -1.3,12.98 -5.47,84.25 -4.12,93.96 1.58,11.59 -2.8,63.12 43.46,93.92 215.79,91.82 254.87,-332.17 282.66,-504.87 39.1,-243.13 59.95,-503.12 79.4,-753.17 58.47,-752.38 245.79,-785.44 -1513.31,-307.07 -113.15,30.77 -228.04,41.93 -284.13,136.66 -62.99,106.34 -33.57,230.31 117.81,213.37 193.58,-21.67 906.56,-265.32 1391.77,-322.45z"/>
   <path class="fil1" d="M30084.51 31156.1c-232.82,-21.98 -570.76,-61.61 -787.53,-116.15 -156.53,-39.4 -592.21,-211.1 -716.33,-152.92 -172.13,269.29 556.95,389.64 757.71,436.03 223.58,51.69 858.29,219.3 1035.96,148.98 65.41,-153.21 -96.47,-1655.48 -186.22,-1789.42 -64.33,-96.03 -277.3,-171.02 -263.76,66.86 18.94,333.19 133.67,870.89 160.17,1406.62z"/>
   <path class="fil1" d="M21528.17 5064.21c163.76,109.46 502.89,754.84 619.41,986.12 57.61,114.36 113.73,294.19 245.72,307.7 299.68,-85.71 -384.99,-1132.06 -471.27,-1268.3 -434.44,-685.91 -289.81,-569.75 -935.72,122.96 -156.42,167.77 -302.74,358.16 -444.81,532.39 -61.01,74.84 -179.3,179.83 -160.78,306.94 56.02,384.27 385.34,-120.3 466.11,-211.36l681.34 -776.45z"/>
   <path class="fil1" d="M26061.62 7578.23c205.98,33.61 959.55,-465.26 1428.29,-609.49 29.08,238.8 106.87,483.33 130.48,725.7 19.29,197.72 -5.99,639.17 78.95,785.54 215.82,39.82 215.64,-155.97 209.89,-347.57 -5.73,-189.88 -16.73,-362.69 -35.26,-550.86 -23.01,-233.6 -68.47,-835.26 -170.12,-983.84 -235.58,-37.05 -1131.58,453.49 -1427.96,600.8 -190.97,94.95 -315.78,128.33 -214.27,379.72z"/>
   <path class="fil1" d="M10058.48 10366.32c37.86,-102.75 -138.98,-1260.28 -143.92,-1522.67 250.23,28.6 544.08,61.17 783.15,117.03 171.57,40.08 570.67,205.34 717.86,157.77 16.23,-27.13 11.37,27.97 21.48,-59.59 19.76,-171.06 -164.1,-208.48 -288.91,-246.48 -249.71,-76.02 -1380.63,-375.36 -1507.16,-285.45 -130.86,92.96 79,1329.91 117.92,1604.44 33.33,235.03 152.42,350.21 299.58,234.95z"/>
   <path class="fil1" d="M30625.68 11140.13c244.53,39.9 1042.82,-26.31 1528.45,-9.98 -40.08,229.6 -114.49,567.7 -188.48,779.85 -64.91,186.16 -255.19,541.47 -224.45,722.38 234.71,51.16 265.48,-101.04 338.71,-282.53 96.71,-239.62 516.68,-1359.1 398.79,-1480.32 -104,-106.92 -1263.11,-28.58 -1427.47,-20.22 -246.59,12.59 -518.17,-1.26 -425.55,290.82z"/>
   <path class="fil1" d="M6163.07 20915.79c-34.41,-53.78 -1131.14,-817.84 -1221.28,-886.13 154.18,-240.37 919.83,-712.35 1109.63,-850.04 42.51,-30.85 102.39,-53.62 88.4,-126.55 -83.59,-435.82 -1599.09,899.83 -1599.22,900.04 -88.21,160.72 247.59,338.25 443.07,492.33l874.28 591.41c137.35,78.16 300.45,50.88 305.12,-121.06z"/>
   <path class="fil1" d="M11450.38 30894.29c-84.34,-65.41 -580.89,104.34 -715.68,137.98 -243.42,60.77 -527.06,130.99 -778,163.15 18.02,-274.08 -3.56,-545.58 31.88,-815.07 26.86,-204.19 114.17,-540.94 77.1,-726.68 -205.21,-38.71 -240.68,104.76 -276.19,292.77 -71.41,377.65 -101.44,700.31 -126.9,1084.14 -36.52,549.94 -211.7,653.58 1096.47,302.64 128.56,-34.49 614.34,-132.31 688.1,-219.07 59.68,-70.22 77.26,-158.14 3.22,-219.86z"/>
   <path class="fil1" d="M6250.7 18096.95c50.32,-120.61 -118.8,-226.85 -191.83,-308.49 -135.32,-151.17 -745.13,-760.66 -795.71,-892.92 191.7,-79.9 397.65,-227.61 601.21,-321.23 210.04,-96.61 459.79,-156.43 671.44,-260.1 169.57,-83.07 99.38,-200.47 -40.18,-222.05 -201.42,-31.14 -1602.13,596.01 -1641.34,707.52 -58.55,166.58 695.75,880.2 834.2,1033.14 82.91,91.56 393.49,493.07 562.21,264.13z"/>
   <path class="fil1" d="M33727.89 13857.01c-22.59,155.71 -282.24,641.1 -369.13,772.45 -31.82,48.08 -591.05,757.77 -151.57,622.45 183.55,-56.52 753.31,-1131.98 885.19,-1402.66 133.94,-274.9 -205.16,-295.64 -649.97,-382.04 -257.54,-50 -734.04,-150.59 -975.59,-164.26 -203.42,-11.53 -289.49,189.38 -169.48,260.1 84.52,49.8 1165.99,170.49 1430.55,293.96z"/>
   <path class="fil1" d="M7517.26 29147.75c162.94,50.79 1692.31,46.73 1811.95,-57.18 51.27,-44.54 84.07,-136.61 32.49,-221.6 -74.2,-39.21 -1305.4,4.06 -1518.27,3.67 100.38,-689.34 240.47,-839.8 394.44,-1317.52 89.92,-279.07 -139.91,-227.35 -226.48,-108.39 -81.59,112.11 -265.78,654.08 -318.21,823.01 -61.06,196.85 -249.09,711.64 -175.92,878.01z"/>
   <path class="fil1" d="M8252.01 12676.02c39.21,-141.3 -352.59,-1092.27 -445.05,-1490.77 224.72,-34.75 533.84,-54.96 764.2,-51.19 228.89,3.75 569.89,75.49 771.7,8.97 35.65,-312.37 -557.25,-276.83 -888.75,-276.43 -201.97,0.26 -403.67,-1.98 -605.06,4.51 -192.78,6.23 -439.11,-45.6 -392.93,210.33 47.95,265.67 198.27,666.38 292.79,920.99 56.18,151.31 105.23,290.61 161.17,443.89 69.11,189.35 108.8,298.36 341.93,229.7z"/>
   <path class="fil1" d="M32189.18 28818.83c-847.9,66.92 -529.73,60.96 -1348.02,10.32 -323.96,-19.08 -200.78,230.7 3.56,263.77 339.1,54.88 828.72,41.61 1182.7,41.61 729.63,0 625.85,21.43 52.75,-1599.99 -129.51,-366.38 -327.15,-214.32 -344.59,-169.4 -25.23,64.91 113.83,399.05 145.55,484.91 109.77,297.12 233.05,650.39 308.05,968.78z"/>
   <path class="fil1" d="M12275.66 8512.2c54.62,-53.54 44.3,-58.87 52.67,-164.6 26.18,-331.16 58.84,-1108.53 137.98,-1346.04 220.86,82.17 513.65,153.86 718.52,262.61 131.09,69.55 558.14,346.43 703.96,298.83 90.3,-207.06 -87.74,-272.1 -218.67,-342.24 -348.5,-186.69 -472.57,-252.42 -847.58,-408.16 -118.51,-49.18 -330.77,-150.77 -447.98,-183.65 -221.76,-62.22 -207.59,180.72 -233.16,370.87 -25.2,187.43 -141.72,1323.21 -83.67,1438.73 34.38,68.35 122.46,119.7 217.93,73.65z"/>
   <path class="fil1" d="M14848.07 7171.05c123.7,-147.35 325.88,-1203.26 486.87,-1448.79 734.78,358.57 1407.83,1210.46 1317.78,689.73 -13.15,-75.86 -160.99,-209.04 -217.67,-256.16 -246.54,-204.95 -809.83,-627.86 -1087.34,-798.82 -227.38,-140.07 -256.01,77.92 -387.52,461.77 -80.56,235.24 -138.85,475.02 -210.73,719.76 -63.14,214.95 -247.93,663.46 98.61,632.51z"/>
   <path class="fil1" d="M27777.42 33364.87c77.24,-169.41 238.25,-1668.67 152.18,-1819.21 -27.84,-48.74 -94.26,-98.82 -181.15,-76.13 -77.92,20.32 -72.46,85.28 -80.53,188.01 -23.41,298.62 -63.57,1146.58 -139.25,1340.52 -240.91,-78.95 -509.93,-160.78 -731.61,-272.58 -126.71,-63.91 -549.51,-336.65 -692.93,-287.64 -77,223.55 139.19,301.5 280.71,373.72 149.88,76.49 285.98,145.73 435.02,217.16 184.31,88.32 771.88,390.61 957.56,336.15z"/>
   <path class="fil1" d="M34721.4 16860.45c-151.1,161.07 -254.27,373.22 -483.36,602.55 -96.16,96.26 -170.62,158.53 -265.25,270.63 -69.9,82.8 -243.34,178.56 -215.71,328.2 183.81,97.5 223.68,21.66 328.81,-74.99 327.67,-301.26 626.11,-630.81 908.01,-976.99 246.66,-302.9 222.31,-289.17 -504.34,-611.57 -123.55,-54.81 -888.64,-385.73 -1006.88,-363.54 -125.77,23.62 -231.16,178.96 -70.77,254 260.54,121.94 1176.31,426.16 1309.49,571.71z"/>
   <path class="fil1" d="M35048.76 19977.3c-2.41,4.75 -7.34,6.26 -8.76,13.3l-267.62 241.26c-98.82,90.72 -193.71,164.68 -308,250.31 -133.33,99.9 -633.42,356.6 -611.89,467.79 140.09,228.25 458.11,-49.87 607.3,-145.95 209.31,-134.78 380.53,-266.14 568.73,-408.84 258.7,-196.16 528,-337.7 411.5,-500.54 -79.74,-111.48 -995.19,-723.64 -1123.64,-809.13 -90.06,-59.93 -214.95,-174.11 -332.64,-163 -163.52,15.44 -205.05,146.82 -73.86,242.34 217.78,158.56 969.84,637.89 1138.88,812.46z"/>
   <path class="fil1" d="M23373.72 33430.84c-46.6,105.15 -43.7,180.91 33.38,263.74 202.41,217.53 1233.76,996.11 1359.25,990.1 168.57,-8.08 359.66,-780.43 405.26,-945.98 46.65,-169.36 96.76,-346.78 147.74,-527.09 54.25,-191.78 80.85,-411.56 -172.68,-379.97 -89.45,120.43 -315.22,1080.61 -479.8,1448.76 -375.72,-200.25 -637.99,-389 -949.2,-663.48 -70.98,-62.59 -220.94,-201.07 -343.95,-186.08z"/>
   <path class="fil1" d="M33764.07 26088.55c-648.04,259.7 -1140.98,232.68 -1483.62,351.48 0.84,315.48 442.14,184.02 677.17,143.6 261.55,-44.97 497.96,-100.75 748.77,-157.27 542.49,-122.25 616.56,-42.67 54.59,-967.75 -112.67,-185.48 -228.01,-366.92 -348.52,-559.17 -58.92,-94.02 -97.4,-220.44 -245.14,-223.61 -415.97,-8.89 225.16,616.94 596.75,1412.72z"/>
   <path class="fil1" d="M16482.44 33847.12c141.3,-114.39 301.92,-176.21 195.45,-426.47 -110.38,-21.21 -122.6,-7.78 -196.61,52.17 -54.89,44.46 -94.6,77.1 -155.19,124.55 -175.73,137.58 -769.29,622.29 -937.16,694.83 -314.7,-474.53 -376.94,-1321.69 -535.24,-1436.92 -298.33,44.2 -64.52,650.42 27.97,940.28 64.04,200.65 245.53,765.39 357.36,911.36 207.27,6.18 710.21,-427.68 858.19,-547.37 137.66,-111.36 243.03,-197.3 385.23,-312.43z"/>
   <path class="fil1" d="M20511.37 33830.87c-116.63,117.47 -71.43,215.5 9.39,329.63 205.79,290.63 419.11,527.66 664.19,778.31 205.22,209.89 368.26,503.95 522.81,388.13 59,-44.25 306.88,-481.48 367.5,-588.38 121.67,-214.5 222.47,-427.42 336.64,-641.31 49.98,-93.65 157.3,-233.32 121.33,-361.35 -12.61,-44.91 -130.11,-236.11 -249.44,-22.06 -148.48,266.38 -522.46,1030.61 -685.9,1218.06 -182.63,-193.26 -383.96,-325.88 -559.23,-544.92 -110.69,-138.4 -393.7,-546.24 -527.29,-556.11z"/>
   <path class="fil1" d="M24604.28 5707.22c90.01,110.08 240.97,528.4 292.74,688.89 64.26,199.22 116.19,653.21 244.8,750.34 277.62,-41.5 115.57,-445.12 57.79,-655.85l-359.24 -1061.08c-64.94,-161.49 -127,-174.61 -273.35,-80.96 -186.71,119.48 -1262.97,890.73 -1286.92,1066.1 -62.73,458.84 553.1,-139.22 765.96,-306.73 174.84,-137.55 352.67,-285.61 558.22,-400.71z"/>
   <path class="fil1" d="M18191.77 35093.1c50.64,79.21 125.5,255.66 226.64,267.09 96.5,10.9 331.82,-265.53 396.13,-345.22l553.68 -656.62c81.11,-98.82 449.9,-461.33 116.42,-551.28 -75.12,3.03 -758.42,886.37 -1023.93,1125.38 -223.55,-174.23 -608.12,-1014.42 -736.46,-1210.82 -107.4,-164.29 -214.24,-37.63 -207.75,99.11 6.99,147.61 408.74,842.75 487.08,972.34 61.69,102.09 120.04,193.39 188.19,300.02z"/>
   <path class="fil1" d="M5848.32 13713.01c-24.51,155.63 118.35,381.59 185.29,493.47l531.15 865.02c97,154.18 182.68,335.41 399.13,206.75 34.33,-219.1 -572.86,-920.13 -730.68,-1377.12 226.63,-37.24 479.35,-151.6 714.27,-199.44 211.63,-43.09 599.44,-42.67 758.74,-147.21 24.78,-221.05 -181.7,-202.39 -380.98,-175.35 -327.47,44.44 -1277.83,205.69 -1476.92,333.88z"/>
   <path class="fil1" d="M6648.12 23762.86c-72.51,-90.35 -1082.19,-404.22 -1371.77,-614.53 149.2,-272.84 529.15,-659.68 749.27,-875.58 68.26,-66.97 235.69,-206.85 213.1,-337.25 -221.81,-102.49 -329.89,82.01 -440.61,179.48 -300.47,264.59 -550.62,594.14 -816.5,905.8 -236.88,277.67 -124.52,284.26 311.84,490.35l974.56 397.47c319.42,125.81 428.82,-2.35 380.11,-145.74z"/>
   <path class="fil1" d="M7735.72 26472.67c-66.26,-73.52 -216.64,-74.76 -350.34,-98.21 -265.09,-46.53 -928.46,-144.05 -1116.47,-230.31 45.91,-303.53 480.98,-932.34 634.98,-1177.87 68.95,-109.96 117.55,-263.8 -97.82,-222.05 -217.98,42.24 -769.21,1164.33 -891.65,1397.89 -154.57,294.82 218.94,306.43 463.28,356.62l1171.54 200.99c136.92,1.72 245.8,-108.72 186.48,-227.06z"/>
   <path class="fil1" d="M13943.28 32450.63c-107.16,-87.02 -239.12,27.74 -338.55,77.53 -251.39,125.84 -886,456.52 -1096.99,501.25 -39.43,-243.79 -108.69,-485.05 -131.28,-726.12 -20.56,-219.39 23.06,-652.8 -95.63,-793.76 -204.6,-4.82 -202.02,188.86 -193.68,382.75l112.52 1141.75c76.41,500.25 19.84,515.29 1095.96,-22.77 145.16,-72.57 271.82,-136.29 418.82,-209.47 139.53,-69.42 336.8,-132.3 228.83,-351.16z"/>
   <path class="fil1" d="M29346.91 32806.97l-335.7 -113.23 15.09 -312.87 346.18 123.41 -25.57 302.69zm-533.47 -754.86c-124.45,77.05 -64.47,100.74 -100.06,437.81 -14.09,133.42 -56.68,336.68 22.85,436.29 62.46,78.21 277.72,101.7 394.54,140.8 113.78,38.1 299.18,143.79 412.93,91.2 133.78,-61.86 104.92,-243.27 119.8,-416.63 56.68,-661 -4.17,-454.89 -625.46,-675.33 -106.05,-37.63 -136.76,-68.53 -224.6,-14.14z"/>
   <path class="fil1" d="M4516.85 18194.11l197.88 224.03c-50.74,41.29 -87.32,53.17 -152.23,88.13 -52.64,28.34 -96.97,63.44 -138.53,89.45 -66.13,-49.97 -159.17,-142.94 -216.11,-224.13l308.99 -177.48zm-58.02 -337.33c-99.64,38.71 -265.04,160.06 -387.26,228.14 -300.47,167.37 -444.07,203.18 29.15,637.43 394.94,362.46 267.81,254.32 749.3,-22.29 340.31,-195.53 407.12,-204.08 -26.15,-631.05 -75.1,-74.04 -201.66,-275.72 -365.04,-212.23z"/>
   <path class="fil1" d="M10996.73 32452.01c43.72,-38.64 -23.22,-21.51 70.11,-26.63l-31.01 89.03 6.28 286.12 -306.04 71.98 12.83 -365.59 247.83 -54.91zm152.54 -360.53c-140.93,35.12 -269.68,71.32 -415.15,103.49 -427.66,94.49 -304.24,151.88 -307.96,697.91 -3.09,452.07 134.31,354.67 628.28,227.51 441.58,-113.7 287.04,-182.7 291.31,-716.41 1.4,-173.57 6.57,-363.09 -196.48,-312.5z"/>
   <path class="fil1" d="M31440.15 9334.82l297.59 -3.96 -83.56 353.38 -305.36 7.49 91.33 -356.91zm465.55 -329.73c-162.57,7.04 -335.49,9.71 -495.34,20.82 -375.36,26.04 -259.12,165.84 -372.69,676.22 -84.76,380.93 88.68,312.19 642.31,290.5 340.58,-13.35 250.07,-122.07 374.12,-669.63 37.76,-166.69 29.74,-325.64 -148.4,-317.91z"/>
   <path class="fil1" d="M34970.28 24616.8c30.32,102.73 95.73,161.28 136,269.34l-357.31 98.92c-36.52,-101.43 -103.83,-168.74 -136.63,-265.27l357.94 -102.99zm-43.72 -334.32c-141.36,47.63 -278.23,110.75 -435.5,159.4 -142.12,43.96 -351.18,72.94 -249.51,277.68l221.33 362.24c225.37,391.51 254.95,248.67 779.61,88.34 154.21,-47.1 332.14,-96.2 230.2,-305.16 -41.14,-84.31 -167,-263.32 -225.21,-357.63 -70.9,-114.86 -147.64,-283.27 -320.92,-224.87z"/>
   <path class="fil1" d="M10650.16 7188.91l345.48 129.27 -27.57 297.78 -344.72 -117.74 26.81 -309.31zm-334.14 338.34c0,284.69 100.5,248.88 340.84,310.71 613.84,157.87 573.42,355.85 641.74,-472.78 30.34,-368.29 -60.72,-316.52 -345.99,-404.62 -473.76,-146.3 -636.59,-371.8 -636.59,566.69z"/>
   <path class="fil1" d="M16786.26 35497.72c-1.13,1.21 -22.88,68.74 -51.53,-14.25l-113.97 -315.88c84.91,-42.27 147.77,-116.58 234.24,-163.6l139.69 332.27c-75.28,66.81 -136.52,116.92 -208.43,161.46zm86.29 -894.37c-33.88,10.24 -283.72,213.19 -349.79,261.5 -393.12,287.52 -255.35,289.26 -50.37,761.09 208.43,479.85 246.35,305.82 638.12,12.71 394.33,-295 242.47,-315.14 42.56,-739.87 -58.34,-123.99 -98.35,-350.55 -280.52,-295.43z"/>
   <path class="fil1" d="M6453.35 27674.34l292.56 60.61 -154.68 327.07 -302.16 -55.78 164.28 -331.9zm-164.78 -305.4c-146.16,50.42 -153.66,218.8 -211.74,353.74 -30.26,70.35 -158.48,336.94 -157.05,399.35 4.17,181.25 185.68,170.11 355.01,200.25 663.43,118.03 532.97,58.71 682.85,-323.59 31.69,-80.85 157.77,-339.31 159.14,-391.03 4.51,-169.83 -209.99,-156.87 -359.92,-185.34 -123.89,-23.51 -358.52,-91.25 -468.29,-53.38z"/>
   <path class="fil1" d="M33657.15 27615.81l96.97 300.5 -344.75 31.53c-40.11,-61.27 -86.6,-210.28 -108.55,-296.53l356.33 -35.5zm-7.55 -319.6c-159.59,39.85 -315.27,49.58 -479.45,61.41 -210.81,15.17 -291.79,72.4 -200.47,287.88 109.93,259.36 120.41,675.33 440.27,627.09 162.89,-24.54 318.81,-39.37 481.38,-54.54 205.88,-19.24 278.26,-92.3 201.6,-298.65 -83.86,-225.77 -151.01,-696.15 -443.33,-623.19z"/>
   <path class="fil1" d="M35281.41 21583.02l298.84 -174.71c74.09,73.38 137.79,142.54 209.54,221.25l-313.43 176.64c-50.45,-60.03 -163.44,-152.89 -194.95,-223.18zm-404.38 23.27c6.09,21.11 126.68,129.64 154.65,160.57 473.23,523.78 329.5,465.44 876.64,159.19 218.41,-122.25 320.95,-137.82 281.1,-313.43 -17.84,-78.63 -223.42,-254.13 -301.05,-329.52 -348.6,-338.55 -242.45,-287.07 -729,11.11 -110.67,67.81 -334.11,132.33 -282.34,312.08z"/>
   <path class="fil1" d="M19744.98 4385.75c39.87,-46.31 66.52,-68.27 106.44,-122.31 42.01,-56.86 29.53,-62.51 98.64,-99.64 57.79,69.38 161.86,218.83 197.85,291.66 -58.5,71.51 -132.68,184.32 -197.85,221.81 -43.2,-51.64 -189.62,-256.35 -205.08,-291.52zm125.23 -616.62c-45.99,24.07 -114.76,133.28 -140.59,163.52 -490.09,573.95 -386.89,446.82 -53.33,889.57 81.78,108.53 173.39,337.91 350.19,246.08 28.47,-14.8 234.05,-272.39 284.69,-321.31 44.33,-42.86 93.28,-104.63 137.45,-165.98 148.5,-206.29 -35.73,-289.81 -223.08,-563.26 -69.61,-101.56 -173.13,-343.88 -355.33,-248.62z"/>
   <path class="fil1" d="M22988.38 4656.19c95.76,-41.59 139.94,-99.43 242.93,-164.39 55.09,87.6 117.05,233.5 146.87,344.77 -97.24,43.91 -144.76,108.14 -239.97,159.96l-149.83 -340.34zm-337.41 78.53c19.98,59.47 158.72,291.05 206.48,397.2 54.57,121.17 110.99,354.99 298.78,250 29.69,-16.6 135.79,-111.94 167.01,-136.27 515.52,-401.72 450.51,-306.75 284.32,-676.83 -33.83,-75.28 -57.18,-130.8 -91.56,-211.62 -190.28,-447.19 -276.22,-270.63 -475.76,-116.13 -172.08,133.22 -455.53,296.22 -389.27,493.65z"/>
   <path class="fil1" d="M5248.46 15013.29c38.18,104.18 97.5,161.25 133.52,266.88l-348.65 99.3 -143.6 -264.75 358.73 -101.43zm509.06 458.11c36.5,-240.31 -29.58,-215.16 -139.32,-407.31 -301.79,-528.48 -261.42,-423.89 -669.92,-291.61 -175.68,56.92 -590.07,96.53 -405.7,388.32 434.3,687.33 320.76,624.29 768.6,463.57 140.41,-50.4 325.33,-98.66 446.34,-152.97z"/>
   <path class="fil1" d="M34583.29 15183.44c22.19,-38.05 183.23,-248.44 215.68,-282.37l274.4 115.23 -206.5 284.27c-97.63,-17.55 -217.38,-66.15 -283.58,-117.13zm866.89 -130.83c112.2,-191.76 -114.73,-267.59 -248.17,-320.61 -679.76,-269.96 -485.97,-250.75 -872.17,286.81 -238.12,331.42 -211.81,310.79 148.71,459.79 625.51,258.55 459.12,266.01 851.2,-274.29l120.43 -151.7z"/>
   <path class="fil1" d="M13806.49 34027.29c33.59,54.89 36.23,124.9 48.39,189.02 10.08,53.03 24.52,108.24 37.42,159.98 -82.25,40.61 -172.52,95.84 -280.18,128.22l-68.55 -356.57 262.92 -120.65zm242.81 -354.8c-236.66,-60.85 -188.77,-2.87 -395.04,91.33 -557.64,254.66 -476.24,212.71 -380.58,639.23 26.33,117.47 53.43,399.16 127.97,454.1 130.81,96.41 283.46,-33.44 397.9,-86.58 544.73,-252.92 452.3,-269.41 357.57,-623.37 -41.3,-154.34 -70.06,-332.01 -107.82,-474.71z"/>
   <path class="fil1" d="M6686.54 12316.28l18.07 50.4 -144.05 -0.76 -194.86 19.31c-58.32,-48.31 -122.2,-220.41 -106.16,-302.42l339.42 -25.01 87.58 258.48zm-76.58 -588.46c-771.43,123.34 -879.3,-75.99 -574.71,731.64 150.54,399.16 222.42,224.16 765.86,185.87 404.12,-28.47 250.78,-188.88 93.44,-672.87 -49.43,-151.94 -102.97,-273.69 -284.59,-244.64z"/>
   <path class="fil1" d="M4924.16 24980.6c54.76,-87.15 153.81,-182.33 190.55,-289.44 104.99,27.42 228.14,69.06 297.43,126.56 -47.05,96.1 -136.63,153.46 -193.05,290.07l-294.93 -127.19zm87.34 -612.2c-104.59,34.54 -152.41,161.91 -265.53,325.01 -52.48,75.68 -230.12,267.88 -217.27,372.87 19.31,158.06 194.45,169.28 345.78,236.09 541.99,239.31 478.48,147.79 723.08,-222.81 111.65,-169.15 380.88,-393.94 72.49,-502.86 -232.6,-82.12 -520.43,-253.9 -658.55,-208.3z"/>
   <path class="fil1" d="M4211.39 21713.95c102.17,-46.05 188.14,-146.9 266.38,-216.74 54.12,28.6 207.88,129.42 250.71,178.9 -50.64,51.03 -228.15,208.27 -285.75,234.13 -56.21,-68.97 -125.02,-87.6 -180.96,-138.05 -49.01,-44.2 -14.57,-2.3 -50.38,-58.24zm142.6 -533.81l-473.52 437.29c-50.66,52.48 -98.77,83.72 -58.24,196.66 9.37,26.12 556.35,517.5 772.81,424.99 73.46,-31.43 116.44,-149.27 303.08,-302.5 392.83,-322.45 281.42,-322.82 -105.6,-601.23 -103.41,-74.36 -273.37,-246.28 -438.53,-155.21z"/>
   <path class="fil1" d="M35518.45 18095.9c105.47,27.62 159.51,108.37 264.82,150.51 -38.02,66.34 -226.27,223.47 -270.47,254.79 -55.81,-34.93 -197.03,-121.11 -244.5,-176.16l250.15 -229.14zm648.78 249.62c124.34,-164.68 -145.9,-294.59 -225.69,-350.61 -525.42,-369.02 -463.15,-309.78 -735.52,-28.94 -101.35,104.49 -224.74,175.76 -314.8,292.6 -127,164.77 114.45,261.26 204.82,326.1 482.25,346.09 442.28,361.26 746.05,41.08l325.14 -280.23z"/>
   <path class="fil1" d="M16633.29 4557.03c2.88,-4.07 8.79,-11.25 11.22,-14.54l24.33 -28.85c64.14,39.03 194.87,179.7 253.31,245.64l-148.48 266.43c-29.87,-45.43 -69.71,-79.13 -113.38,-119l-142.04 -125.47 115.04 -224.21zm-61.85 -437.45c-140.14,47.15 -182.68,246.03 -249.96,361.21 -331.35,567.04 -40.19,434.71 360.02,870.12 220.05,239.38 315.91,-116.63 433.65,-309.84 314.35,-515.81 86.08,-396.57 -340.58,-854.47 -65.47,-70.27 -86.44,-106.31 -203.13,-67.02z"/>
   <path class="fil1" d="M31794.19 30522.07c39.18,54.97 25.93,9.53 22,87.98 -79.69,-1.11 -35.75,2.14 -61.16,-22.56l-305.06 -32.3 -37.92 -310.42 358.6 37.34 23.54 239.96zm-630.37 -591.97c-132.25,69.32 -68.47,221.26 -50.37,385.15 16.17,146.24 6.07,348.5 75.92,460.54 78.15,125.33 235.11,89.9 401.24,107.81 517.08,55.73 583.92,135.42 519.46,-355.93 -84.89,-647.36 -59.64,-538.62 -478.8,-568.46 -115.18,-8.21 -383.56,-73.09 -467.45,-29.11z"/>
   <path class="fil1" d="M8342.23 30316.99l304.82 -7.81 -69.26 356.36 -317.05 9.9 81.49 -358.45zm641.26 -238.59c-163.92,-138.35 -180.96,-72.88 -436.29,-70.9 -585.45,4.48 -468.13,20.97 -559.06,464.91 -23.49,114.73 -110.01,344.43 -48.61,443.91 71.12,115.21 242.71,72.04 397.82,67.82 626.67,-17.05 507.63,-54.68 574.84,-450.3 25.04,-147.21 85.1,-308.12 71.3,-455.44z"/>
   <path class="fil1" d="M13433.32 5828.44c13.17,-97 51.06,-222.81 94.73,-289.44l299.78 175.26 -85.31 301.9c-48.86,-22.4 -261.94,-148.11 -309.2,-187.72zm-34.07 -674.85c-103.62,40.77 -106.07,22.53 -141.8,148.21 -244.29,859.2 -231.28,651.77 243.9,925.01 95.62,54.99 276.85,204.81 380.29,167.45 123.62,-44.67 136.71,-272.53 180.75,-403.01 181.25,-537.14 92.43,-444.02 -298.86,-677.92 -79.06,-47.23 -280.55,-192.7 -364.28,-159.74z"/>
   <path class="fil1" d="M23078.5 35243.16c23.43,-56.91 32.95,-71.82 67.07,-131.64l85.74 -126.5 253.31 237.3 -157.42 269.65c-85.37,-75.73 -169.12,-151.09 -248.7,-248.81zm74.38 -663.03c-106.63,24.7 -100.37,53.04 -141.41,140.91 -295.16,632.21 -477.89,474.13 41.85,932.97 174.56,154.08 218.57,266.99 356.31,237.01 119.51,-26.02 188.09,-230.57 248.78,-337.12 314.77,-552.76 167,-421.75 -322.29,-881.52 -55.42,-52.03 -87.45,-114.47 -183.24,-92.25z"/>
   <path class="fil1" d="M26104.53 5607.21l267.64 -111.22 84.36 364.38 -269.41 112.25 -82.59 -365.41zm-157.72 717.12c225.35,68.4 194.87,6.6 394.44,-85.49 585.74,-270.26 473.2,-240.55 380.95,-644.43 -130.14,-569.83 -81.43,-566.56 -526.19,-361.98 -103.83,47.76 -311.24,143.1 -373.3,209.31 -121.64,129.82 -25.67,252.49 16.1,408.79 41.11,153.83 67.87,329.6 108,473.8z"/>
   <path class="fil1" d="M26253.59 33983.57c66.34,28.13 239.52,135.13 315.64,191.07l-89.32 293.14 -309.92 -184.69 83.6 -299.52zm642.9 119.32c0,-191.54 -151.91,-193.92 -297.36,-272.42 -113.39,-61.16 -274.22,-178.74 -367.23,-216.98 -189.2,-77.79 -216.59,122.78 -259.41,275.27 -164.71,586.4 -243.58,512.7 171.7,745.26 445.81,249.64 495.87,387.57 628.28,-61.17 37.81,-128.16 124.02,-346.91 124.02,-469.96z"/>
   <path class="fil1" d="M8244.57 9406.04l305.4 52.17 38.08 273.9c-39.53,28.68 45.62,20.05 -75.31,16.86l-285.9 -35.54 -27.68 -260.1 -23.54 -63.65c132.78,-27.23 24.57,-11.48 68.95,16.36zm-280.47 -328.23c-149.8,62.35 -101.75,214.03 -80.16,371.85 87.31,638.41 37.15,565.08 454.67,590.33 540.94,32.75 607.94,170.83 546.82,-340.34 -76.36,-638.57 -30.39,-533.2 -460.35,-580.17 -98.66,-10.77 -398.1,-67.82 -460.98,-41.67z"/>
   <path class="fil1" d="M19851.08 35513.61c149.43,-107.9 91.72,-116.08 192.07,-189.17 87.85,86.02 77.32,132.25 208.12,261.94 -37.5,94.89 -136.87,196.4 -209.65,259.02 -52.93,-80.46 -174.42,-243.45 -190.54,-331.79zm-354.8 55.36c0,99.9 111.27,186.66 223.73,346.43 79.48,112.97 168.12,254.56 253.32,327.73 195.43,15.15 206.85,-70.58 291.45,-173.68 471.77,-575.03 391.64,-432.91 103.99,-826.23 -160.75,-219.81 -269.76,-506.4 -488.56,-209.23 -95.73,130.01 -383.93,372.91 -383.93,534.98z"/>
   <path class="fil1" d="M29260.44 7128.69l-3.65 361.88 -301.63 73.17 0.93 -364.38 304.35 -70.67zm297.64 -279.22c-159.64,-127.06 -185.29,-75 -393.09,-20.75 -547.24,142.84 -544.39,80.09 -515.6,489.86 40.18,572.07 -115,661.47 381.21,538.74 506.29,-125.26 552.13,-49.42 541.15,-468.58 -4.83,-183.97 9.05,-353.51 -13.67,-539.27z"/>
   <path class="fil1" d="M33390.98 11935.52l315.41 53.88c-37.5,118.69 -104.26,199.01 -141.62,339.47l-315.81 -53.51 142.02 -339.84zm-154.42 -297.86c-141.2,55.65 -131.19,191.67 -192.25,350.02 -202.13,524 -301.58,494.55 212.28,594.24 607.67,117.88 495.87,78.93 662.03,-301.39 36.31,-83.12 160.3,-333.17 158.72,-401.8 -4.2,-182.89 -199.7,-173.36 -360.48,-202.02 -123.96,-22.11 -365.01,-84.52 -480.3,-39.05z"/>
   <path class="fil1" d="M7952.75 31195.61l-277.67 7.09 20.66 -136.79c-41.45,47.68 -34.67,84.97 -43.38,161.89l263.98 -19.77c5.99,-1.26 13.93,-4.59 18.6,-5.77 4.57,-1.17 11.9,-4.33 17.81,-6.65z"/>
   <path class="fil1" d="M6560.56 12365.92l144.05 0.76 -18.07 -50.4c-4.96,3.96 -11.72,8.69 -15.73,10.64 -4.04,1.95 -11.5,7.23 -16.57,9.44l-93.68 29.56z"/>
   <path class="fil1" d="M10177.22 6604.06c29.37,-45.96 13.33,-35.78 68.92,-53.25 -44.99,-34.59 9.61,-23.43 -64.43,-18.7l-4.49 71.95z"/>
   <path class="fil1" d="M31755.03 30587.49c25.41,24.7 -18.53,21.45 61.16,22.56 3.93,-78.45 17.18,-33.01 -22,-87.98l6.65 70.51 -45.81 -5.09z"/>
   <path class="fil1" d="M8199.16 9453.33c2.95,-86.03 -11.3,-24.52 45.41,-47.29 -44.38,-27.84 63.83,-43.59 -68.95,-16.36l23.54 63.65z"/>
   <path class="fil1" d="M11035.83 32514.41l31.01 -89.03c-93.33,5.12 -26.39,-12.01 -70.11,26.63l42 -7.29 -2.9 69.69z"/>
   <path class="fil1" d="M5642.26 28426.19c-32.35,-34.94 -7.91,-11.08 -30,-59.84 -93.91,0 14.12,54.25 30,59.84z"/>
   <path class="fil1" d="M16786.26 35497.72l-51.53 -14.25c28.65,82.99 50.4,15.46 51.53,14.25z"/>
   <path class="fil1" d="M33867.85 24492.84l17.92 -50.27c-81.83,24.83 -26.68,42.22 -17.92,50.27z"/>
  </g>
 </g>
</svg>
